<?xml version="1.0" encoding="utf-8"?>
<!-- Generator: Adobe Illustrator 27.5.0, SVG Export Plug-In . SVG Version: 6.00 Build 0)  -->
<svg version="1.1" id="레이어_1" xmlns="http://www.w3.org/2000/svg" xmlns:xlink="http://www.w3.org/1999/xlink" x="0px"
	 y="0px" viewBox="0 0 341 70" style="enable-background:new 0 0 341 70;" xml:space="preserve">
<style type="text/css">
	.st0{fill:#AEFA4E;fill-opacity:0.5;}
	.st1{opacity:0.5;}
	.st2{fill:#CCFF8B;}
</style>
<g>
	<ellipse class="st0" cx="169.5" cy="32.1" rx="140.8" ry="22"/>
</g>
<g class="st1">
	<path class="st2" d="M170.1,9.3c-91.7,0-166,11.8-166,26.2C3.7,25.1,45.2,9.1,170,9.1c98.8,0,145.1,10.4,160.2,19.6
		c3.7,2.1,5.7,4.3,5.9,6.6c0,0.1,0,0.2,0,0.3c0-0.1,0-0.2,0-0.3c-0.2-2-2-4.3-5.9-6.6C311,17.5,246.6,9.3,170.1,9.3z"/>
</g>
<g class="st1">
	<path class="st2" d="M170.1,61.8c91.7,0,166-11.8,166-26.2c0.2,9.8-32.8,29.5-165.9,29.5C37.2,65.1,4.1,45.4,4.1,35.6
		C4.1,50.1,78.5,61.8,170.1,61.8z"/>
</g>
</svg>
