<svg width="25" height="25" viewBox="0 0 25 25" fill="none" xmlns="http://www.w3.org/2000/svg">
<path d="M17.8086 3.38311C18.0712 3.12047 18.383 2.91213 18.7262 2.76999C19.0694 2.62785 19.4372 2.55469 19.8086 2.55469C20.18 2.55469 20.5478 2.62785 20.891 2.76999C21.2341 2.91213 21.5459 3.12047 21.8086 3.38311C22.0712 3.64576 22.2796 3.95756 22.4217 4.30072C22.5639 4.64388 22.637 5.01168 22.637 5.38311C22.637 5.75455 22.5639 6.12235 22.4217 6.46551C22.2796 6.80867 22.0712 7.12047 21.8086 7.38311L8.30859 20.8831L2.80859 22.3831L4.30859 16.8831L17.8086 3.38311Z" stroke="#7C7F84" stroke-width="1.5" stroke-linecap="round" stroke-linejoin="round"/>
</svg>
