<svg width="24" height="25" viewBox="0 0 24 25" fill="none" xmlns="http://www.w3.org/2000/svg">
<path d="M21 12.4258C21.0034 13.7457 20.6951 15.0477 20.1 16.2258C19.3944 17.6376 18.3098 18.825 16.9674 19.6551C15.6251 20.4852 14.0782 20.9252 12.5 20.9258C11.1801 20.9293 9.87812 20.6209 8.7 20.0258L3 21.9258L4.9 16.2258C4.30493 15.0477 3.99656 13.7457 4 12.4258C4.00061 10.8476 4.44061 9.30066 5.27072 7.95836C6.10083 6.61606 7.28825 5.53138 8.7 4.82581C9.87812 4.23074 11.1801 3.92237 12.5 3.92581H13C15.0843 4.0408 17.053 4.92057 18.5291 6.39667C20.0052 7.87277 20.885 9.84146 21 11.9258V12.4258Z" stroke="white" stroke-width="1.5" stroke-linecap="round" stroke-linejoin="round"/>
</svg>
