<svg width="25" height="25" viewBox="0 0 25 25" fill="none" xmlns="http://www.w3.org/2000/svg">
<g clip-path="url(#clip0_8041_7645)">
<path d="M15.858 5.39844C16.8348 5.589 17.7324 6.06669 18.4361 6.77037C19.1398 7.47405 19.6175 8.3717 19.808 9.34844M15.858 1.39844C17.8873 1.62387 19.7796 2.53261 21.2243 3.97545C22.6689 5.41828 23.58 7.30945 23.808 9.33844M22.808 17.3184V20.3184C22.8092 20.5969 22.7521 20.8726 22.6405 21.1278C22.529 21.383 22.3653 21.612 22.1601 21.8003C21.9549 21.9886 21.7126 22.1319 21.4488 22.2211C21.185 22.3104 20.9054 22.3435 20.628 22.3184C17.5509 21.9841 14.595 20.9326 11.998 19.2484C9.58187 17.7131 7.53337 15.6646 5.99804 13.2484C4.30802 10.6396 3.25628 7.66943 2.92804 4.57844C2.90305 4.3019 2.93591 4.0232 3.02454 3.76006C3.11316 3.49693 3.25561 3.25513 3.4428 3.05006C3.63 2.84499 3.85784 2.68115 4.11183 2.56896C4.36582 2.45677 4.64038 2.3987 4.91804 2.39844H7.91804C8.40335 2.39366 8.87383 2.56552 9.2418 2.88197C9.60977 3.19842 9.85012 3.63788 9.91804 4.11844C10.0447 5.0785 10.2795 6.02116 10.618 6.92844C10.7526 7.28636 10.7817 7.67535 10.7019 8.04932C10.6222 8.42328 10.4369 8.76655 10.168 9.03844L8.89804 10.3084C10.3216 12.812 12.3945 14.8849 14.898 16.3084L16.168 15.0384C16.4399 14.7696 16.7832 14.5843 17.1572 14.5045C17.5311 14.4248 17.9201 14.4539 18.278 14.5884C19.1853 14.927 20.128 15.1618 21.088 15.2884C21.5738 15.357 22.0174 15.6016 22.3346 15.9759C22.6517 16.3502 22.8202 16.828 22.808 17.3184Z" stroke="#FCFDFF" stroke-width="1.5" stroke-linecap="round" stroke-linejoin="round"/>
</g>
<defs>
<clipPath id="clip0_8041_7645">
<rect width="24" height="24" fill="white" transform="translate(0.808594 0.398438)"/>
</clipPath>
</defs>
</svg>
