<svg width="25" height="25" viewBox="0 0 25 25" fill="none" xmlns="http://www.w3.org/2000/svg">
<g clip-path="url(#clip0_8041_7639)">
<path d="M23.8086 1.39844L17.8086 7.39844" stroke="white" stroke-width="1.5" stroke-linecap="round" stroke-linejoin="round"/>
<path d="M17.8086 1.39844L23.8086 7.39844" stroke="white" stroke-width="1.5" stroke-linecap="round" stroke-linejoin="round"/>
<path d="M22.808 17.3185V20.3185C22.8092 20.597 22.7521 20.8727 22.6405 21.1279C22.529 21.3831 22.3653 21.6121 22.1601 21.8004C21.9549 21.9887 21.7126 22.132 21.4488 22.2212C21.185 22.3105 20.9054 22.3436 20.628 22.3185C17.5509 21.9842 14.595 20.9327 11.998 19.2485C9.58187 17.7132 7.53337 15.6647 5.99804 13.2485C4.30802 10.6397 3.25628 7.66953 2.92804 4.57853C2.90305 4.302 2.93591 4.02329 3.02454 3.76016C3.11316 3.49702 3.25561 3.25522 3.4428 3.05016C3.63 2.84509 3.85784 2.68124 4.11183 2.56906C4.36582 2.45687 4.64038 2.3988 4.91804 2.39853H7.91804C8.40335 2.39376 8.87383 2.56561 9.2418 2.88207C9.60977 3.19852 9.85012 3.63798 9.91804 4.11853C10.0447 5.0786 10.2795 6.02126 10.618 6.92853C10.7526 7.28646 10.7817 7.67545 10.7019 8.04941C10.6222 8.42338 10.4369 8.76665 10.168 9.03853L8.89804 10.3085C10.3216 12.8121 12.3945 14.885 14.898 16.3085L16.168 15.0385C16.4399 14.7697 16.7832 14.5844 17.1572 14.5046C17.5311 14.4249 17.9201 14.454 18.278 14.5885C19.1853 14.9271 20.128 15.1619 21.088 15.2885C21.5738 15.3571 22.0174 15.6017 22.3346 15.976C22.6517 16.3503 22.8202 16.8281 22.808 17.3185Z" stroke="white" stroke-width="1.5" stroke-linecap="round" stroke-linejoin="round"/>
</g>
<defs>
<clipPath id="clip0_8041_7639">
<rect width="24" height="24" fill="white" transform="translate(0.808594 0.398438)"/>
</clipPath>
</defs>
</svg>
