<svg width="25" height="25" viewBox="0 0 25 25" fill="none" xmlns="http://www.w3.org/2000/svg">
<g id="scan">
<path id="Vector" d="M8.90918 3.1914L5.90829 3.1914C5.37785 3.1914 4.86915 3.40212 4.49407 3.77719C4.119 4.15226 3.90829 4.66097 3.90829 5.1914L3.90829 8.19141" stroke="#1A1C21" stroke-width="1.5" stroke-linecap="round" stroke-linejoin="round"/>
<path id="Vector_2" d="M21.9092 8.19141L21.9092 5.19051C21.9092 4.66008 21.6985 4.15137 21.3234 3.7763C20.9483 3.40123 20.4396 3.19051 19.9092 3.19051L16.9092 3.19051" stroke="#1A1C21" stroke-width="1.5" stroke-linecap="round" stroke-linejoin="round"/>
<path id="Vector_3" d="M16.9082 21.1914L19.9091 21.1914C20.4395 21.1914 20.9482 20.9807 21.3233 20.6056C21.6984 20.2305 21.9091 19.7218 21.9091 19.1914L21.9091 16.1914" stroke="#1A1C21" stroke-width="1.5" stroke-linecap="round" stroke-linejoin="round"/>
<path id="Vector_4" d="M3.9082 16.1914L3.9082 19.1923C3.9082 19.7227 4.11892 20.2314 4.49399 20.6065C4.86906 20.9816 5.37777 21.1923 5.9082 21.1923L8.9082 21.1923" stroke="#1A1C21" stroke-width="1.5" stroke-linecap="round" stroke-linejoin="round"/>
<path id="Vector 2368" d="M3.9082 12.1914H21.9091" stroke="#1A1C21" stroke-width="1.5" stroke-linecap="round"/>
</g>
</svg>
