<svg width="25" height="25" viewBox="0 0 25 25" fill="none" xmlns="http://www.w3.org/2000/svg">
<g id="icon_setting_24px">
<path id="Vector" d="M19.5315 12.8255C19.5315 12.8052 19.5315 12.785 19.5313 12.7648C19.5283 12.4212 19.6707 12.0876 19.9445 11.88L21.1784 10.9446C21.5384 10.6747 21.6374 10.1707 21.4124 9.77472L19.7295 6.86794C19.5045 6.47197 19.0186 6.30998 18.6046 6.48997L17.1806 7.09269C16.8628 7.22718 16.501 7.18356 16.2043 7.0073C16.1726 6.98846 16.1408 6.96988 16.1088 6.95156C15.8096 6.78031 15.5908 6.4892 15.5478 6.14718L15.3559 4.61811C15.3019 4.16815 14.9149 3.82617 14.4649 3.82617H11.1082C10.6492 3.82617 10.2622 4.16815 10.2082 4.61811L10.0163 6.14718C9.97334 6.4892 9.75448 6.78031 9.45532 6.95156C9.42332 6.96988 9.39146 6.98846 9.35975 7.0073C9.06311 7.18356 8.70125 7.22718 8.38349 7.09269L6.95949 6.48997C6.54552 6.30998 6.05955 6.47197 5.83457 6.86794L4.1517 9.78372C3.92671 10.1797 4.02571 10.6747 4.38568 10.9536L5.61755 11.8875C5.89249 12.0959 6.03512 12.4314 6.03273 12.7764C6.03261 12.7927 6.03256 12.8091 6.03256 12.8255C6.03256 12.8458 6.03264 12.866 6.03282 12.8862C6.03577 13.2298 5.89342 13.5634 5.61959 13.771L4.38568 14.7064C4.02571 14.9763 3.92671 15.4803 4.1517 15.8763L5.83457 18.783C6.05955 19.179 6.54552 19.341 6.95949 19.161L8.38349 18.5583C8.70125 18.4238 9.06311 18.4674 9.35975 18.6437C9.39146 18.6625 9.42332 18.6811 9.45532 18.6994C9.75448 18.8707 9.97334 19.1618 10.0163 19.5038L10.2082 21.0329C10.2622 21.4828 10.6492 21.8248 11.0992 21.8248H14.4559C14.9059 21.8248 15.2929 21.4828 15.3469 21.0329L15.5388 19.5038C15.5818 19.1618 15.8006 18.8707 16.0998 18.6994C16.1318 18.6811 16.1636 18.6625 16.1953 18.6437C16.492 18.4674 16.8538 18.4238 17.1716 18.5583L18.5956 19.161C19.0096 19.341 19.4955 19.179 19.7205 18.783L21.4034 15.8763C21.6284 15.4803 21.5294 14.9853 21.1694 14.7064L19.9581 13.7881C19.6721 13.5713 19.5297 13.2174 19.5315 12.8585C19.5315 12.8475 19.5315 12.8365 19.5315 12.8255ZM12.818 15.9753C11.0812 15.9753 9.66828 14.5624 9.66828 12.8255C9.66828 11.0886 11.0812 9.67573 12.818 9.67573C14.5549 9.67573 15.9678 11.0886 15.9678 12.8255C15.9678 14.5624 14.5549 15.9753 12.818 15.9753Z" stroke="#FCFDFF" stroke-width="1.2"/>
</g>
</svg>
