<svg width="25" height="25" viewBox="0 0 25 25" fill="none" xmlns="http://www.w3.org/2000/svg">
<g id="user">
<path id="Vector" d="M18.1357 21.5215V19.5215C18.1357 18.4606 17.7143 17.4432 16.9642 16.6931C16.214 15.9429 15.1966 15.5215 14.1357 15.5215H6.13574C5.07488 15.5215 4.05746 15.9429 3.30731 16.6931C2.55717 17.4432 2.13574 18.4606 2.13574 19.5215V21.5215" stroke="#FCFDFF" stroke-width="1.5" stroke-linecap="round" stroke-linejoin="round"/>
<path id="Vector_2" d="M10.1357 11.5215C12.3449 11.5215 14.1357 9.73062 14.1357 7.52148C14.1357 5.31235 12.3449 3.52148 10.1357 3.52148C7.9266 3.52148 6.13574 5.31235 6.13574 7.52148C6.13574 9.73062 7.9266 11.5215 10.1357 11.5215Z" stroke="#FCFDFF" stroke-width="1.5" stroke-linecap="round" stroke-linejoin="round"/>
<path id="Vector_3" d="M22.1357 21.5214V19.5214C22.1351 18.6351 21.8401 17.7741 21.2971 17.0737C20.7541 16.3732 19.9939 15.8729 19.1357 15.6514" stroke="#FCFDFF" stroke-width="1.5" stroke-linecap="round" stroke-linejoin="round"/>
<path id="Vector_4" d="M15.1357 3.65137C15.9962 3.87167 16.7588 4.37207 17.3034 5.07368C17.848 5.77529 18.1436 6.6382 18.1436 7.52637C18.1436 8.41454 17.848 9.27745 17.3034 9.97906C16.7588 10.6807 15.9962 11.1811 15.1357 11.4014" stroke="#FCFDFF" stroke-width="1.5" stroke-linecap="round" stroke-linejoin="round"/>
</g>
</svg>
